<?xml version="1.0" standalone="no"?>
<!DOCTYPE svg PUBLIC "-//W3C//DTD SVG 20010904//EN"
 "http://www.w3.org/TR/2001/REC-SVG-20010904/DTD/svg10.dtd">
<svg version="1.0" xmlns="http://www.w3.org/2000/svg"
 width="2048.000000pt" height="2048.000000pt" viewBox="0 0 2048.000000 2048.000000"
 preserveAspectRatio="xMidYMid meet">

<g transform="translate(0.000000,2048.000000) scale(0.100000,-0.100000)"
fill="#000000" stroke="none">
<path d="M9398 17155 c-428 -32 -903 -114 -1313 -225 -126 -34 -382 -109 -412
-121 -16 -6 -82 -30 -148 -54 -124 -44 -300 -113 -370 -145 -22 -10 -87 -39
-145 -65 -697 -312 -1397 -784 -1966 -1326 -397 -379 -681 -715 -989 -1169
-341 -502 -609 -1044 -804 -1628 -89 -265 -136 -446 -200 -767 -56 -281 -74
-401 -95 -625 -50 -525 -42 -1065 21 -1505 88 -621 229 -1126 457 -1637 230
-516 495 -939 881 -1408 57 -69 117 -138 135 -155 l32 -30 -22 40 c-46 81
-171 338 -209 427 -197 468 -272 685 -371 1072 -63 247 -100 420 -125 581
-106 692 -122 1198 -59 1815 121 1183 552 2294 1254 3225 588 781 1317 1403
2185 1867 88 47 185 97 215 111 30 14 100 46 155 72 545 254 1230 450 1858
530 376 47 412 50 792 49 547 0 864 -33 1390 -145 376 -80 682 -175 1110 -344
196 -78 559 -259 795 -398 101 -59 451 -291 568 -376 462 -337 940 -806 1279
-1256 171 -227 260 -357 366 -533 251 -419 394 -725 538 -1152 34 -101 59
-162 59 -145 0 47 -48 366 -76 505 -78 386 -224 845 -379 1190 -315 704 -727
1303 -1275 1850 -611 612 -1292 1066 -2095 1397 -603 248 -1227 401 -1920 469
-223 22 -882 27 -1117 9z"/>
<path d="M9916 15450 c-642 -35 -1218 -153 -1821 -373 -233 -85 -589 -247
-795 -362 -406 -227 -685 -420 -1030 -714 -161 -137 -496 -470 -634 -631 -338
-395 -642 -875 -849 -1340 -169 -380 -294 -799 -367 -1225 -44 -258 -61 -485
-62 -810 0 -425 25 -667 109 -1050 147 -672 430 -1284 862 -1865 368 -495 865
-956 1411 -1308 525 -339 1021 -564 1645 -746 264 -77 321 -90 770 -176 506
-96 1262 -119 1830 -55 629 72 1338 261 1895 507 861 380 1615 939 2218 1643
159 186 461 600 447 613 -2 3 -35 -25 -72 -61 -703 -677 -1720 -1176 -2846
-1396 -445 -87 -828 -124 -1307 -124 -741 0 -1349 95 -2090 327 -122 39 -458
162 -555 204 -49 22 -115 50 -145 63 -88 38 -479 234 -550 277 -36 21 -110 65
-165 97 -416 244 -850 596 -1191 966 -509 554 -848 1174 -1039 1904 -147 561
-169 1144 -65 1751 88 513 332 1123 628 1567 590 886 1437 1527 2467 1869 401
133 774 214 1215 265 195 22 827 25 1015 5 577 -62 1063 -170 1540 -340 378
-135 809 -346 1125 -552 171 -111 122 -66 -85 78 -437 303 -897 530 -1430 705
-439 144 -909 238 -1360 271 -257 20 -539 26 -719 16z"/>
<path d="M10234 14411 c-91 -72 -226 -182 -489 -396 -287 -233 -549 -446 -620
-504 -44 -35 -102 -83 -130 -106 -54 -45 -675 -551 -865 -705 -189 -153 -704
-573 -1031 -841 -85 -70 -184 -151 -220 -180 -283 -229 -565 -461 -679 -558
l-135 -116 518 -3 517 -2 0 -519 0 -519 83 -59 c176 -127 450 -300 577 -363
36 -18 72 -38 80 -45 8 -7 25 -16 37 -19 l22 -7 1 1006 0 1006 33 28 c37 32
74 62 356 289 221 178 673 544 861 698 63 51 210 169 325 261 116 93 296 238
400 324 265 216 448 364 463 373 15 9 94 -50 553 -414 357 -284 1041 -829
1477 -1178 l442 -354 0 -1524 c0 -838 -3 -1524 -7 -1524 -5 0 -48 -6 -98 -14
-128 -20 -430 -52 -635 -68 -338 -25 -980 -12 -1375 27 -951 96 -1899 371
-2776 806 -119 59 -240 122 -270 140 -52 30 -79 46 -151 87 -330 188 -703 472
-989 753 -276 271 -428 477 -616 830 -54 102 -122 288 -172 474 l-18 70 -8
-156 c-22 -457 73 -931 272 -1364 174 -379 408 -709 738 -1041 252 -252 495
-450 815 -661 442 -293 991 -559 1525 -739 626 -212 1236 -331 1929 -375 336
-21 862 -4 1246 41 802 94 1611 363 2240 742 386 233 651 438 936 723 444 443
739 892 954 1450 49 129 144 439 164 535 48 238 85 498 66 470 -5 -8 -10 -23
-10 -32 0 -10 -6 -32 -14 -50 -8 -18 -29 -71 -47 -118 -79 -208 -235 -489
-394 -710 -207 -288 -513 -593 -820 -820 -445 -328 -980 -593 -1582 -784 -45
-14 -85 -26 -88 -26 -3 0 -4 528 -3 1173 l3 1172 543 0 c298 0 541 3 540 7 -3
6 -211 178 -288 236 -53 41 -283 224 -389 310 -52 42 -152 122 -221 177 -70
55 -284 226 -476 379 -192 154 -428 342 -524 419 -96 76 -202 160 -235 187
-33 27 -107 86 -165 132 -58 46 -136 109 -175 140 -78 63 -798 636 -891 709
-32 26 -144 115 -249 199 -104 83 -293 233 -418 333 -126 100 -252 201 -280
224 -29 23 -55 42 -58 43 -4 0 -51 -36 -105 -79z"/>
<path d="M16080 14418 c0 -4 17 -36 38 -70 206 -338 417 -789 547 -1168 284
-833 399 -1605 366 -2459 -16 -402 -46 -656 -127 -1061 -195 -981 -536 -1823
-1048 -2585 -492 -733 -1207 -1436 -1951 -1920 -382 -249 -792 -467 -1170
-622 -370 -153 -865 -304 -1265 -388 -1033 -216 -2095 -196 -3172 59 -706 167
-1433 461 -2023 818 -478 289 -820 549 -1174 893 -184 178 -184 179 18 -95
424 -576 951 -1080 1589 -1521 293 -201 653 -407 982 -560 876 -406 1784 -622
2770 -660 841 -32 1670 90 2480 366 358 123 605 228 985 421 962 488 1806
1190 2415 2009 57 77 116 156 130 175 84 111 263 397 374 595 347 619 573
1212 726 1905 329 1483 144 3037 -525 4415 -167 343 -354 652 -638 1055 -92
131 -326 415 -327 398z"/>
<path d="M9580 11523 c0 -137 3 -285 7 -331 l6 -83 316 3 316 3 3 328 3 327
-325 0 -326 0 0 -247z"/>
<path d="M10357 11733 c-8 -52 -9 -533 -1 -583 l7 -40 318 0 318 0 -1 330 0
330 -318 0 -317 0 -6 -37z"/>
<path d="M9584 10946 c-2 -6 -3 -155 -2 -331 l3 -320 320 0 320 0 0 330 0 330
-319 1 c-219 0 -319 -3 -322 -10z"/>
<path d="M10352 10933 c0 -16 -1 -163 -1 -327 -1 -233 1 -301 11 -308 7 -4
153 -7 323 -5 l310 2 2 333 3 332 -324 0 -323 0 -1 -27z"/>
</g>
</svg>
